<svg preserveAspectRatio="none" overflow="visible" style="display: block;" width="390.432" height="67.0255" viewBox="0 0 390.432 67.0255" fill="none" xmlns="http://www.w3.org/2000/svg">
<path id="Vector" fill-rule="evenodd" clip-rule="evenodd" d="M10.4322 1.14654C6.15121 2.84854 2.44622 7.23854 0.902216 12.4395C-2.39778 23.5495 3.45521 33.9495 16.8152 40.7195C31.8002 48.3125 49.3492 49.7035 77.8452 45.5565C92.3712 43.4425 97.4712 42.1715 113.972 36.5495L133.185 30.0045L143.798 32.5625C155.004 35.2625 158.798 35.2165 165.703 32.2965C170.786 30.1485 171.65 26.7895 168.048 23.1875C165.712 20.8515 164.462 20.4965 157.449 20.1775C150.86 19.8785 148.206 20.2625 141.956 22.4215C137.808 23.8535 133.306 25.0255 131.952 25.0255C129.481 25.0255 117.771 20.3215 118.528 19.6325C120.37 17.9595 145.668 8.94553 151.516 7.87853C163.344 5.72153 175.937 6.12554 181.932 8.85554C187.418 11.3545 192.432 15.6175 192.432 17.7845C192.432 18.5465 191.34 21.0495 190.006 23.3475C186.158 29.9755 184.122 39.4135 184.789 47.5305C185.79 59.6985 189.408 67.0255 194.418 67.0255C198.893 67.0255 200.357 66.0786 202.725 61.6526C204.663 58.0276 204.932 56.0045 204.932 45.0255C204.932 32.6955 204.882 32.4215 201.267 24.8505C197.216 16.3675 197.225 16.3185 203.471 11.7165C207.734 8.57653 216.95 6.02554 224.032 6.02554C231.915 6.02554 246.786 9.43454 258.031 13.8195C271.227 18.9645 271.93 19.3675 270.212 20.7935C269.471 21.4075 266.797 22.7975 264.269 23.8815L259.673 25.8515L251.351 22.9385C236.856 17.8655 222.06 19.3205 219.931 26.0285C219.059 28.7745 221.528 31.5715 226.178 33.1065C230.302 34.4675 243.037 33.7685 251.932 31.6925C257.167 30.4705 258.378 30.4835 261.432 31.7895C263.357 32.6125 270.958 35.2415 278.324 37.6315C324.683 52.6765 365.035 51.1545 383.255 33.6735C388.506 28.6355 390.432 24.3765 390.432 17.8045C390.432 10.9765 387.978 6.32754 382.558 2.89054C374.11 -2.46746 361.607 -0.0774598 357.968 7.59054C355.847 12.0605 356.032 16.6255 358.432 19.0255C360.804 21.3975 361.783 21.5125 363.369 19.6015C364.296 18.4845 364.107 17.3095 362.493 14.1445C359.881 9.02554 361.038 5.95754 366.512 3.48954C373.913 0.151542 381.964 3.13354 384.891 10.2955C387.201 15.9485 386.831 21.5225 383.771 27.1445C378.685 36.4885 367.171 42.4245 349.298 44.9165C332.902 47.2035 300.665 41.2245 272.035 30.5875C268.242 29.1785 264.979 28.0255 264.785 28.0255C264.591 28.0255 264.432 27.6585 264.432 27.2105C264.432 26.2815 270.509 23.1955 274.831 21.9285C277.143 21.2515 279.278 21.7595 285.365 24.4365C304.55 32.8715 322.761 32.8305 331.633 24.3315C337.032 19.1615 336.119 11.8605 329.564 7.78454C326.456 5.85154 324.561 5.52654 316.432 5.53054C306.316 5.53554 295.85 8.24654 285.292 13.5965C282.656 14.9325 279.889 16.0255 279.144 16.0255C278.4 16.0255 273.013 14.2255 267.174 12.0255C253.697 6.94654 245.1 5.15253 230.474 4.36553C214.55 3.50953 205.248 5.80954 198.219 12.3405L195.505 14.8615L190.972 11.4005C184.885 6.75354 179.523 4.95753 169.775 4.30253C155.211 3.32453 131.87 7.57553 118.257 13.6845C112.02 16.4835 112.052 16.4865 102.432 12.4485C86.3042 5.67954 71.2592 3.39954 63.6642 6.57354C57.5312 9.13554 55.4322 11.7515 55.4322 16.8315C55.4322 20.6455 55.9472 21.7745 58.9922 24.6465C67.8872 33.0365 83.6322 32.8785 106.204 24.1735L114.269 21.0635L119.851 23.5315C122.92 24.8895 125.432 26.3915 125.432 26.8695C125.432 29.3755 87.6402 40.8345 70.9322 43.3955C53.4742 46.0715 48.3792 46.2495 38.3562 44.5355C23.3752 41.9745 12.0472 35.7495 6.68722 27.1335C3.70822 22.3455 3.56122 12.9665 6.39222 8.32453C10.1502 2.15953 18.8502 0.154545 25.1552 3.99855C29.1322 6.42255 30.1122 9.80954 28.0132 13.8685C26.0322 17.6995 26.0082 19.6485 27.9322 20.3875C32.0382 21.9625 35.3972 16.2325 33.5212 10.8505C31.7022 5.63354 29.6302 3.13454 25.7902 1.53054C21.7382 -0.162457 14.1992 -0.35146 10.4322 1.14654ZM64.9322 8.60453C57.2332 11.3715 55.2722 17.0195 60.2742 22.0215C65.6132 27.3605 74.4392 28.0805 90.2502 24.4665C97.1862 22.8815 106.432 19.2075 106.432 18.0365C106.432 16.6735 92.3552 10.9765 84.0902 8.99554C74.5672 6.71254 70.4312 6.62753 64.9322 8.60453ZM307.932 8.15754C305.182 8.65754 302.032 9.48453 300.932 9.99453C299.832 10.5045 295.581 12.2245 291.484 13.8165C287.388 15.4085 283.884 17.1695 283.697 17.7295C283.279 18.9845 290.755 22.2595 299.432 24.6235C307.184 26.7335 321.645 27.0085 326.179 25.1305C329.986 23.5535 332.437 20.0865 332.417 16.3105C332.395 12.4535 331.541 11.4285 326.404 9.09854C321.64 6.93654 316.179 6.65854 307.932 8.15754ZM193.601 21.7755C190.611 27.5765 189.087 35.1915 189.012 44.6965C188.942 53.5395 189.206 55.2365 191.032 57.6965C193.92 61.5855 196.857 61.8335 199.119 58.3785C200.627 56.0755 200.931 53.4985 200.928 43.0675C200.924 31.7805 200.674 29.9995 198.433 25.2755C195.749 19.6135 194.995 19.0685 193.601 21.7755ZM145.617 25.1735C141.793 26.3615 139.457 27.6065 139.694 28.3305C140.758 31.5725 162.432 32.9295 165.99 29.9775C168.236 28.1135 167.366 24.7275 164.432 23.9165C159.885 22.6585 152.022 23.1845 145.617 25.1735ZM225.182 24.1225C221.883 25.4055 221.542 28.4795 224.523 30.0745C229.974 32.9915 249.021 31.7585 250.135 28.4165C251.182 25.2745 231.102 21.8185 225.182 24.1225Z" fill="#DF9EA1"/>
</svg>
